<svg width="18" height="18" viewBox="0 0 18 18" fill="none" xmlns="http://www.w3.org/2000/svg">
<path d="M9.00033 0.666992C9.22134 0.666992 9.4333 0.75479 9.58958 0.91107C9.74586 1.06735 9.83366 1.27931 9.83366 1.50033V4.00033C9.83366 4.22134 9.74586 4.4333 9.58958 4.58958C9.4333 4.74586 9.22134 4.83366 9.00033 4.83366C8.77931 4.83366 8.56735 4.74586 8.41107 4.58958C8.25479 4.4333 8.16699 4.22134 8.16699 4.00033V1.50033C8.16699 1.27931 8.25479 1.06735 8.41107 0.91107C8.56735 0.75479 8.77931 0.666992 9.00033 0.666992ZM9.00033 13.167C9.22134 13.167 9.4333 13.2548 9.58958 13.4111C9.74586 13.5673 9.83366 13.7793 9.83366 14.0003V16.5003C9.83366 16.7213 9.74586 16.9333 9.58958 17.0896C9.4333 17.2459 9.22134 17.3337 9.00033 17.3337C8.77931 17.3337 8.56735 17.2459 8.41107 17.0896C8.25479 16.9333 8.16699 16.7213 8.16699 16.5003V14.0003C8.16699 13.7793 8.25479 13.5673 8.41107 13.4111C8.56735 13.2548 8.77931 13.167 9.00033 13.167ZM17.3337 9.00033C17.3337 9.22134 17.2459 9.4333 17.0896 9.58958C16.9333 9.74586 16.7213 9.83366 16.5003 9.83366H14.0003C13.7793 9.83366 13.5673 9.74586 13.4111 9.58958C13.2548 9.4333 13.167 9.22134 13.167 9.00033C13.167 8.77931 13.2548 8.56735 13.4111 8.41107C13.5673 8.25479 13.7793 8.16699 14.0003 8.16699H16.5003C16.7213 8.16699 16.9333 8.25479 17.0896 8.41107C17.2459 8.56735 17.3337 8.77931 17.3337 9.00033ZM4.83366 9.00033C4.83366 9.22134 4.74586 9.4333 4.58958 9.58958C4.4333 9.74586 4.22134 9.83366 4.00033 9.83366H1.50033C1.27931 9.83366 1.06735 9.74586 0.91107 9.58958C0.75479 9.4333 0.666992 9.22134 0.666992 9.00033C0.666992 8.77931 0.75479 8.56735 0.91107 8.41107C1.06735 8.25479 1.27931 8.16699 1.50033 8.16699H4.00033C4.22134 8.16699 4.4333 8.25479 4.58958 8.41107C4.74586 8.56735 4.83366 8.77931 4.83366 9.00033ZM14.8928 14.8928C14.7366 15.0491 14.5246 15.1368 14.3037 15.1368C14.0827 15.1368 13.8708 15.0491 13.7145 14.8928L11.947 13.1253C11.7952 12.9682 11.7112 12.7577 11.7131 12.5392C11.715 12.3207 11.8026 12.1116 11.9571 11.9571C12.1116 11.8026 12.3207 11.715 12.5392 11.7131C12.7577 11.7112 12.9682 11.7952 13.1253 11.947L14.8928 13.7137C14.9703 13.7911 15.0318 13.883 15.0737 13.9841C15.1156 14.0853 15.1372 14.1937 15.1372 14.3032C15.1372 14.4128 15.1156 14.5212 15.0737 14.6224C15.0318 14.7235 14.9703 14.8154 14.8928 14.8928ZM6.05366 6.05366C5.89739 6.20988 5.68546 6.29765 5.46449 6.29765C5.24352 6.29765 5.0316 6.20988 4.87533 6.05366L3.10866 4.28699C2.95229 4.13074 2.8644 3.91876 2.86432 3.6977C2.86425 3.47664 2.95199 3.26461 3.10824 3.10824C3.2645 2.95187 3.47647 2.86398 3.69753 2.86391C3.91859 2.86383 4.13062 2.95157 4.28699 3.10783L6.05366 4.87533C6.20988 5.0316 6.29765 5.24352 6.29765 5.46449C6.29765 5.68546 6.20988 5.89739 6.05366 6.05366ZM3.10866 14.8928C2.95243 14.7366 2.86467 14.5246 2.86467 14.3037C2.86467 14.0827 2.95243 13.8708 3.10866 13.7145L4.87616 11.947C4.95303 11.8674 5.04499 11.8039 5.14666 11.7602C5.24832 11.7166 5.35767 11.6936 5.46832 11.6926C5.57897 11.6917 5.68871 11.7127 5.79112 11.7546C5.89353 11.7965 5.98658 11.8584 6.06482 11.9367C6.14306 12.0149 6.20494 12.108 6.24684 12.2104C6.28874 12.3128 6.30983 12.4225 6.30887 12.5332C6.30791 12.6438 6.28492 12.7532 6.24124 12.8548C6.19757 12.9565 6.13408 13.0485 6.05449 13.1253L4.28783 14.8928C4.21043 14.9703 4.11852 15.0318 4.01736 15.0737C3.91619 15.1156 3.80775 15.1372 3.69824 15.1372C3.58873 15.1372 3.48029 15.1156 3.37913 15.0737C3.27796 15.0318 3.18605 14.9703 3.10866 14.8928ZM11.947 6.05366C11.7908 5.89739 11.703 5.68546 11.703 5.46449C11.703 5.24352 11.7908 5.0316 11.947 4.87533L13.7137 3.10783C13.8699 2.95146 14.0819 2.86357 14.3029 2.86349C14.524 2.86341 14.736 2.95115 14.8924 3.10741C15.0488 3.26367 15.1367 3.47564 15.1367 3.6967C15.1368 3.91776 15.0491 4.12979 14.8928 4.28616L13.1253 6.05366C12.9691 6.20988 12.7571 6.29765 12.5362 6.29765C12.3152 6.29765 12.1033 6.20988 11.947 6.05366Z" fill="#318017"/>
</svg>
