<svg width="16" height="16" viewBox="0 0 16 16" fill="none" xmlns="http://www.w3.org/2000/svg">
<path d="M5 2.2V0.8C5 0.587827 5.08429 0.384344 5.23431 0.234315C5.38434 0.0842855 5.58783 0 5.8 0H10.2C10.4122 0 10.6157 0.0842855 10.7657 0.234315C10.9157 0.384344 11 0.587827 11 0.8V2.2H16V3.8H14.4V15.2C14.4 15.4122 14.3157 15.6157 14.1657 15.7657C14.0157 15.9157 13.8122 16 13.6 16H2.4C2.18783 16 1.98434 15.9157 1.83431 15.7657C1.68429 15.6157 1.6 15.4122 1.6 15.2V3.8H0V2.2H5ZM9.1312 9.6L10.5456 8.1856L9.4144 7.0544L8 8.4688L6.5856 7.0544L5.4544 8.1856L6.8688 9.6L5.4544 11.0144L6.5856 12.1456L8 10.7312L9.4144 12.1456L10.5456 11.0144L9.1312 9.6Z" fill="#97A7AE"/>
</svg>
